<?xml version="1.0" ?><svg viewBox="0 0 24 24" xmlns="http://www.w3.org/2000/svg"><title/><g id="Ask"><g data-name="&lt;Group&gt;" id="_Group_"><circle cx="23" cy="4.03" data-name="&lt;Path&gt;" id="_Path_" r="0.5" style="fill:none;stroke:#303c42;stroke-linecap:round;stroke-linejoin:round"/><polyline data-name="&lt;Path&gt;" id="_Path_2" points="4.5 16.5 8.5 7.5 9 16" style="fill:none;stroke:#303c42;stroke-linecap:round;stroke-linejoin:round"/><path d="M14,10.5c-1.16-.72-2.66-.09-2.5,1s2.06,1.22,2,2.5A1.46,1.46,0,0,1,11,15" data-name="&lt;Path&gt;" id="_Path_3" style="fill:none;stroke:#303c42;stroke-linecap:round;stroke-linejoin:round"/><line data-name="&lt;Path&gt;" id="_Path_4" style="fill:none;stroke:#303c42;stroke-linecap:round;stroke-linejoin:round" x1="17" x2="15.5" y1="6" y2="15"/><polyline data-name="&lt;Path&gt;" id="_Path_5" points="19 9.5 17 12 18.5 14.5" style="fill:none;stroke:#303c42;stroke-linecap:round;stroke-linejoin:round"/><line data-name="&lt;Path&gt;" id="_Path_6" style="fill:none;stroke:#303c42;stroke-linecap:round;stroke-linejoin:round" x1="5.39" x2="8.89" y1="14.5" y2="14.08"/><path d="M8,20.5c9,0,15.5-6.69,15.5-11.5,0-2.5-2.06-5.5-7.5-5.5C7,3.5.5,10.19.5,15,.5,17.5,2.56,20.5,8,20.5Z" data-name="&lt;Path&gt;" id="_Path_7" style="fill:none;stroke:#303c42;stroke-linecap:round;stroke-linejoin:round"/></g></g></svg>